<mxfile host="app.diagrams.net" modified="2024-02-15T14:02:14.796Z" agent="Mozilla/5.0 (Windows NT 10.0; Win64; x64) AppleWebKit/537.36 (KHTML, like Gecko) Chrome/121.0.0.0 Safari/537.36 Edg/121.0.0.0" etag="hyswa3n3jNxcBSnmy8-K" version="23.1.2" type="github">
  <diagram name="第 1 页" id="P5VrA6vz167heK5x6usT">
    <mxGraphModel dx="1325" dy="676" grid="0" gridSize="10" guides="1" tooltips="1" connect="1" arrows="1" fold="1" page="0" pageScale="1" pageWidth="827" pageHeight="1169" math="0" shadow="0">
      <root>
        <mxCell id="0" />
        <mxCell id="1" parent="0" />
        <mxCell id="94UgcNjxxHoQXgSa3JWe-1" value="user" style="rounded=1;whiteSpace=wrap;html=1;sketch=1;hachureGap=4;jiggle=2;curveFitting=1;fontFamily=Architects Daughter;fontSource=https%3A%2F%2Ffonts.googleapis.com%2Fcss%3Ffamily%3DArchitects%2BDaughter;fontSize=20;" vertex="1" parent="1">
          <mxGeometry x="119" y="160" width="120" height="60" as="geometry" />
        </mxCell>
        <mxCell id="94UgcNjxxHoQXgSa3JWe-3" style="edgeStyle=none;curved=1;rounded=0;sketch=1;hachureGap=4;jiggle=2;curveFitting=1;orthogonalLoop=1;jettySize=auto;html=1;entryX=0;entryY=0.5;entryDx=0;entryDy=0;fontFamily=Architects Daughter;fontSource=https%3A%2F%2Ffonts.googleapis.com%2Fcss%3Ffamily%3DArchitects%2BDaughter;fontSize=16;startSize=8;endSize=8;" edge="1" parent="1" source="94UgcNjxxHoQXgSa3JWe-2" target="94UgcNjxxHoQXgSa3JWe-1">
          <mxGeometry relative="1" as="geometry" />
        </mxCell>
        <mxCell id="94UgcNjxxHoQXgSa3JWe-2" value="session" style="rounded=1;whiteSpace=wrap;html=1;sketch=1;hachureGap=4;jiggle=2;curveFitting=1;fontFamily=Architects Daughter;fontSource=https%3A%2F%2Ffonts.googleapis.com%2Fcss%3Ffamily%3DArchitects%2BDaughter;fontSize=20;" vertex="1" parent="1">
          <mxGeometry x="-134" y="160" width="120" height="60" as="geometry" />
        </mxCell>
        <mxCell id="94UgcNjxxHoQXgSa3JWe-4" value="get/create" style="text;html=1;align=center;verticalAlign=middle;resizable=0;points=[];autosize=1;strokeColor=none;fillColor=none;fontFamily=Architects Daughter;fontSource=https%3A%2F%2Ffonts.googleapis.com%2Fcss%3Ffamily%3DArchitects%2BDaughter;fontSize=20;" vertex="1" parent="1">
          <mxGeometry x="-7" y="157" width="120" height="36" as="geometry" />
        </mxCell>
        <mxCell id="94UgcNjxxHoQXgSa3JWe-7" value="" style="shape=flexArrow;endArrow=classic;html=1;rounded=0;sketch=1;hachureGap=4;jiggle=2;curveFitting=1;fontFamily=Architects Daughter;fontSource=https%3A%2F%2Ffonts.googleapis.com%2Fcss%3Ffamily%3DArchitects%2BDaughter;fontSize=16;curved=1;startSize=8;endSize=8;entryX=0.008;entryY=1.139;entryDx=0;entryDy=0;entryPerimeter=0;" edge="1" parent="1" target="94UgcNjxxHoQXgSa3JWe-1">
          <mxGeometry width="50" height="50" relative="1" as="geometry">
            <mxPoint x="-65" y="286.5" as="sourcePoint" />
            <mxPoint x="103" y="286.5" as="targetPoint" />
          </mxGeometry>
        </mxCell>
        <mxCell id="94UgcNjxxHoQXgSa3JWe-8" value="token verify" style="text;html=1;align=center;verticalAlign=middle;resizable=0;points=[];autosize=1;strokeColor=none;fillColor=none;fontFamily=Architects Daughter;fontSource=https%3A%2F%2Ffonts.googleapis.com%2Fcss%3Ffamily%3DArchitects%2BDaughter;fontSize=20;" vertex="1" parent="1">
          <mxGeometry x="-48" y="282" width="137" height="36" as="geometry" />
        </mxCell>
        <mxCell id="94UgcNjxxHoQXgSa3JWe-9" value="http client" style="shape=umlActor;verticalLabelPosition=bottom;verticalAlign=top;html=1;outlineConnect=0;sketch=1;hachureGap=4;jiggle=2;curveFitting=1;fontFamily=Architects Daughter;fontSource=https%3A%2F%2Ffonts.googleapis.com%2Fcss%3Ffamily%3DArchitects%2BDaughter;fontSize=20;" vertex="1" parent="1">
          <mxGeometry x="-117" y="250" width="30" height="60" as="geometry" />
        </mxCell>
        <mxCell id="94UgcNjxxHoQXgSa3JWe-10" value="" style="shape=flexArrow;endArrow=classic;html=1;rounded=0;sketch=1;hachureGap=4;jiggle=2;curveFitting=1;fontFamily=Architects Daughter;fontSource=https%3A%2F%2Ffonts.googleapis.com%2Fcss%3Ffamily%3DArchitects%2BDaughter;fontSize=16;curved=1;startSize=8;endSize=8;exitX=0.431;exitY=1.15;exitDx=0;exitDy=0;exitPerimeter=0;entryX=0.689;entryY=-0.106;entryDx=0;entryDy=0;entryPerimeter=0;" edge="1" parent="1" source="94UgcNjxxHoQXgSa3JWe-1" target="94UgcNjxxHoQXgSa3JWe-11">
          <mxGeometry width="50" height="50" relative="1" as="geometry">
            <mxPoint x="156" y="313" as="sourcePoint" />
            <mxPoint x="175" y="321" as="targetPoint" />
          </mxGeometry>
        </mxCell>
        <mxCell id="94UgcNjxxHoQXgSa3JWe-11" value="model" style="rounded=1;whiteSpace=wrap;html=1;sketch=1;hachureGap=4;jiggle=2;curveFitting=1;fontFamily=Architects Daughter;fontSource=https%3A%2F%2Ffonts.googleapis.com%2Fcss%3Ffamily%3DArchitects%2BDaughter;fontSize=20;" vertex="1" parent="1">
          <mxGeometry x="16" y="352" width="120" height="60" as="geometry" />
        </mxCell>
        <mxCell id="94UgcNjxxHoQXgSa3JWe-12" value="space" style="rounded=1;whiteSpace=wrap;html=1;sketch=1;hachureGap=4;jiggle=2;curveFitting=1;fontFamily=Architects Daughter;fontSource=https%3A%2F%2Ffonts.googleapis.com%2Fcss%3Ffamily%3DArchitects%2BDaughter;fontSize=20;" vertex="1" parent="1">
          <mxGeometry x="158" y="352" width="120" height="60" as="geometry" />
        </mxCell>
        <mxCell id="94UgcNjxxHoQXgSa3JWe-13" value="dataset" style="rounded=1;whiteSpace=wrap;html=1;sketch=1;hachureGap=4;jiggle=2;curveFitting=1;fontFamily=Architects Daughter;fontSource=https%3A%2F%2Ffonts.googleapis.com%2Fcss%3Ffamily%3DArchitects%2BDaughter;fontSize=20;" vertex="1" parent="1">
          <mxGeometry x="308" y="352" width="120" height="60" as="geometry" />
        </mxCell>
        <mxCell id="94UgcNjxxHoQXgSa3JWe-14" value="" style="shape=flexArrow;endArrow=classic;html=1;rounded=0;sketch=1;hachureGap=4;jiggle=2;curveFitting=1;fontFamily=Architects Daughter;fontSource=https%3A%2F%2Ffonts.googleapis.com%2Fcss%3Ffamily%3DArchitects%2BDaughter;fontSize=16;curved=1;startSize=8;endSize=8;exitX=0.492;exitY=1.117;exitDx=0;exitDy=0;exitPerimeter=0;entryX=0.5;entryY=0;entryDx=0;entryDy=0;" edge="1" parent="1" source="94UgcNjxxHoQXgSa3JWe-1" target="94UgcNjxxHoQXgSa3JWe-12">
          <mxGeometry width="50" height="50" relative="1" as="geometry">
            <mxPoint x="181" y="239" as="sourcePoint" />
            <mxPoint x="109" y="356" as="targetPoint" />
          </mxGeometry>
        </mxCell>
        <mxCell id="94UgcNjxxHoQXgSa3JWe-15" value="" style="shape=flexArrow;endArrow=classic;html=1;rounded=0;sketch=1;hachureGap=4;jiggle=2;curveFitting=1;fontFamily=Architects Daughter;fontSource=https%3A%2F%2Ffonts.googleapis.com%2Fcss%3Ffamily%3DArchitects%2BDaughter;fontSize=16;curved=1;startSize=8;endSize=8;exitX=0.697;exitY=1.117;exitDx=0;exitDy=0;exitPerimeter=0;entryX=0.5;entryY=0;entryDx=0;entryDy=0;" edge="1" parent="1" source="94UgcNjxxHoQXgSa3JWe-1" target="94UgcNjxxHoQXgSa3JWe-13">
          <mxGeometry width="50" height="50" relative="1" as="geometry">
            <mxPoint x="188" y="237" as="sourcePoint" />
            <mxPoint x="228" y="362" as="targetPoint" />
          </mxGeometry>
        </mxCell>
        <mxCell id="94UgcNjxxHoQXgSa3JWe-18" value="organization" style="rounded=1;whiteSpace=wrap;html=1;sketch=1;hachureGap=4;jiggle=2;curveFitting=1;fontFamily=Architects Daughter;fontSource=https%3A%2F%2Ffonts.googleapis.com%2Fcss%3Ffamily%3DArchitects%2BDaughter;fontSize=20;" vertex="1" parent="1">
          <mxGeometry x="109" y="19" width="120" height="60" as="geometry" />
        </mxCell>
        <mxCell id="94UgcNjxxHoQXgSa3JWe-19" style="edgeStyle=none;curved=1;rounded=0;sketch=1;hachureGap=4;jiggle=2;curveFitting=1;orthogonalLoop=1;jettySize=auto;html=1;entryX=0.419;entryY=-0.094;entryDx=0;entryDy=0;entryPerimeter=0;fontFamily=Architects Daughter;fontSource=https%3A%2F%2Ffonts.googleapis.com%2Fcss%3Ffamily%3DArchitects%2BDaughter;fontSize=16;startSize=8;endSize=8;" edge="1" parent="1" source="94UgcNjxxHoQXgSa3JWe-18" target="94UgcNjxxHoQXgSa3JWe-1">
          <mxGeometry relative="1" as="geometry" />
        </mxCell>
        <mxCell id="94UgcNjxxHoQXgSa3JWe-20" value="get" style="text;html=1;align=center;verticalAlign=middle;resizable=0;points=[];autosize=1;strokeColor=none;fillColor=none;fontFamily=Architects Daughter;fontSource=https%3A%2F%2Ffonts.googleapis.com%2Fcss%3Ffamily%3DArchitects%2BDaughter;fontSize=20;" vertex="1" parent="1">
          <mxGeometry x="172" y="99" width="47" height="36" as="geometry" />
        </mxCell>
        <mxCell id="94UgcNjxxHoQXgSa3JWe-21" value="user api" style="rounded=1;whiteSpace=wrap;html=1;sketch=1;hachureGap=4;jiggle=2;curveFitting=1;fontFamily=Architects Daughter;fontSource=https%3A%2F%2Ffonts.googleapis.com%2Fcss%3Ffamily%3DArchitects%2BDaughter;fontSize=20;" vertex="1" parent="1">
          <mxGeometry x="16" y="736" width="120" height="58" as="geometry" />
        </mxCell>
        <mxCell id="94UgcNjxxHoQXgSa3JWe-22" value="organization" style="rounded=1;whiteSpace=wrap;html=1;sketch=1;hachureGap=4;jiggle=2;curveFitting=1;fontFamily=Architects Daughter;fontSource=https%3A%2F%2Ffonts.googleapis.com%2Fcss%3Ffamily%3DArchitects%2BDaughter;fontSize=20;" vertex="1" parent="1">
          <mxGeometry x="259" y="736" width="120" height="60" as="geometry" />
        </mxCell>
        <mxCell id="94UgcNjxxHoQXgSa3JWe-26" value="token" style="rounded=0;whiteSpace=wrap;html=1;sketch=1;hachureGap=4;jiggle=2;curveFitting=1;fontFamily=Architects Daughter;fontSource=https%3A%2F%2Ffonts.googleapis.com%2Fcss%3Ffamily%3DArchitects%2BDaughter;fontSize=20;" vertex="1" parent="1">
          <mxGeometry x="-87" y="820" width="120" height="60" as="geometry" />
        </mxCell>
        <mxCell id="94UgcNjxxHoQXgSa3JWe-27" value="user middleware" style="rounded=0;whiteSpace=wrap;html=1;sketch=1;hachureGap=4;jiggle=2;curveFitting=1;fontFamily=Architects Daughter;fontSource=https%3A%2F%2Ffonts.googleapis.com%2Fcss%3Ffamily%3DArchitects%2BDaughter;fontSize=20;" vertex="1" parent="1">
          <mxGeometry x="47" y="822" width="120" height="60" as="geometry" />
        </mxCell>
        <mxCell id="94UgcNjxxHoQXgSa3JWe-28" value="user" style="rounded=0;whiteSpace=wrap;html=1;sketch=1;hachureGap=4;jiggle=2;curveFitting=1;fontFamily=Architects Daughter;fontSource=https%3A%2F%2Ffonts.googleapis.com%2Fcss%3Ffamily%3DArchitects%2BDaughter;fontSize=20;" vertex="1" parent="1">
          <mxGeometry x="-217" y="820" width="120" height="60" as="geometry" />
        </mxCell>
        <mxCell id="94UgcNjxxHoQXgSa3JWe-29" value="organization" style="rounded=0;whiteSpace=wrap;html=1;sketch=1;hachureGap=4;jiggle=2;curveFitting=1;fontFamily=Architects Daughter;fontSource=https%3A%2F%2Ffonts.googleapis.com%2Fcss%3Ffamily%3DArchitects%2BDaughter;fontSize=20;" vertex="1" parent="1">
          <mxGeometry x="211" y="822" width="120" height="60" as="geometry" />
        </mxCell>
        <mxCell id="94UgcNjxxHoQXgSa3JWe-30" value="member" style="rounded=0;whiteSpace=wrap;html=1;sketch=1;hachureGap=4;jiggle=2;curveFitting=1;fontFamily=Architects Daughter;fontSource=https%3A%2F%2Ffonts.googleapis.com%2Fcss%3Ffamily%3DArchitects%2BDaughter;fontSize=20;" vertex="1" parent="1">
          <mxGeometry x="342" y="822" width="120" height="60" as="geometry" />
        </mxCell>
        <mxCell id="94UgcNjxxHoQXgSa3JWe-31" value="invite" style="rounded=0;whiteSpace=wrap;html=1;sketch=1;hachureGap=4;jiggle=2;curveFitting=1;fontFamily=Architects Daughter;fontSource=https%3A%2F%2Ffonts.googleapis.com%2Fcss%3Ffamily%3DArchitects%2BDaughter;fontSize=20;" vertex="1" parent="1">
          <mxGeometry x="477" y="822" width="120" height="60" as="geometry" />
        </mxCell>
        <mxCell id="94UgcNjxxHoQXgSa3JWe-32" value="permission" style="rounded=0;whiteSpace=wrap;html=1;sketch=1;hachureGap=4;jiggle=2;curveFitting=1;fontFamily=Architects Daughter;fontSource=https%3A%2F%2Ffonts.googleapis.com%2Fcss%3Ffamily%3DArchitects%2BDaughter;fontSize=20;" vertex="1" parent="1">
          <mxGeometry x="608" y="822" width="120" height="60" as="geometry" />
        </mxCell>
        <mxCell id="94UgcNjxxHoQXgSa3JWe-33" value="database" style="rounded=0;whiteSpace=wrap;html=1;sketch=1;hachureGap=4;jiggle=2;curveFitting=1;fontFamily=Architects Daughter;fontSource=https%3A%2F%2Ffonts.googleapis.com%2Fcss%3Ffamily%3DArchitects%2BDaughter;fontSize=20;" vertex="1" parent="1">
          <mxGeometry x="-31" y="912" width="120" height="60" as="geometry" />
        </mxCell>
        <mxCell id="94UgcNjxxHoQXgSa3JWe-35" value="identity provider" style="rounded=0;whiteSpace=wrap;html=1;sketch=1;hachureGap=4;jiggle=2;curveFitting=1;fontFamily=Architects Daughter;fontSource=https%3A%2F%2Ffonts.googleapis.com%2Fcss%3Ffamily%3DArchitects%2BDaughter;fontSize=20;" vertex="1" parent="1">
          <mxGeometry x="109" y="912" width="120" height="60" as="geometry" />
        </mxCell>
        <mxCell id="94UgcNjxxHoQXgSa3JWe-47" value="git server" style="rounded=0;whiteSpace=wrap;html=1;sketch=1;hachureGap=4;jiggle=2;curveFitting=1;fontFamily=Architects Daughter;fontSource=https%3A%2F%2Ffonts.googleapis.com%2Fcss%3Ffamily%3DArchitects%2BDaughter;fontSize=20;" vertex="1" parent="1">
          <mxGeometry x="249" y="912" width="120" height="60" as="geometry" />
        </mxCell>
      </root>
    </mxGraphModel>
  </diagram>
</mxfile>
